<svg viewBox="0 0 300 300" xmlns="http://www.w3.org/2000/svg">
  <defs>
    <filter id="frameRough" x="-30%" y="-30%" width="160%" height="160%">
      <feTurbulence type="turbulence" baseFrequency="0.02 0.04" numOctaves="4" seed="23" result="warp"/>
      <feDisplacementMap in="SourceGraphic" in2="warp" scale="10" result="rough"/>
      <feTurbulence type="fractalNoise" baseFrequency="0.8" numOctaves="3" seed="8" result="grainNoise"/>
      <feColorMatrix in="grainNoise" type="matrix"
        values="0 0 0 0 0  0 0 0 0 0  0 0 0 0 0  0.4 0.4 0.4 0 0" result="grainAlpha"/>
      <feComposite in="grainAlpha" in2="rough" operator="in" result="grainClipped"/>
      <feComponentTransfer in="grainClipped" result="grainSoft">
        <feFuncA type="linear" slope="0.5"/>
      </feComponentTransfer>
      <feMerge>
        <feMergeNode in="rough"/>
        <feMergeNode in="grainSoft"/>
      </feMerge>
    </filter>
  </defs>

  <!-- 바깥쪽 겹침 레이어 (머스타드 옐로우, 살짝 어긋나게) -->
  <path filter="url(#frameRough)" fill="#d9a24c" opacity="0.85" fill-rule="evenodd" d="
    M6,8 C60,3 150,10 296,5 C298,90 292,200 297,294
    C230,298 100,292 4,296 C2,210 8,100 6,8 Z
    M40,42 C120,38 200,44 262,40 C264,110 260,190 264,260
    C190,264 100,258 38,262 C36,190 40,110 40,42 Z
  "/>

  <!-- 안쪽 메인 레이어 (러스트/테라코타) -->
  <path filter="url(#frameRough)" fill="#c0694a" fill-rule="evenodd" d="
    M14,16 C70,10 160,18 290,12 C292,95 286,205 291,288
    C225,292 95,286 12,290 C10,205 15,100 14,16 Z
    M46,48 C125,44 205,50 256,46 C258,112 254,188 258,254
    C185,258 105,252 44,256 C42,185 46,112 46,48 Z
  "/>
</svg>
