<svg viewBox="0 0 400 300" xmlns="http://www.w3.org/2000/svg" width="420" height="315">
  <defs>
    <filter id="crayonRough2" x="-50%" y="-50%" width="200%" height="200%">
      <feTurbulence type="turbulence" baseFrequency="0.015 0.06" numOctaves="4" seed="31" result="warp"/>
      <feDisplacementMap in="SourceGraphic" in2="warp" scale="24" result="rough"/>
      <feTurbulence type="fractalNoise" baseFrequency="0.7" numOctaves="3" seed="9" result="grainNoise"/>
      <feColorMatrix in="grainNoise" type="matrix"
        values="0 0 0 0 0  0 0 0 0 0  0 0 0 0 0  0.55 0.55 0.55 0 0" result="grainAlpha"/>
      <feComposite in="grainAlpha" in2="rough" operator="in" result="grainClipped"/>
      <feComponentTransfer in="grainClipped" result="grainSoft">
        <feFuncA type="linear" slope="0.6"/>
      </feComponentTransfer>
      <feMerge>
        <feMergeNode in="rough"/>
        <feMergeNode in="grainSoft"/>
      </feMerge>
    </filter>
    <filter id="scribble" x="-80%" y="-80%" width="260%" height="260%">
      <feTurbulence type="turbulence" baseFrequency="0.03 0.09" numOctaves="3" seed="18" result="w"/>
      <feDisplacementMap in="SourceGraphic" in2="w" scale="16"/>
    </filter>
  </defs>

  <!-- 강렬한 단색 배경 -->
  <rect x="0" y="0" width="400" height="300" fill="#f2542d"/>

  <!-- 신나는 색색 스크리블 (배경 장식) -->
  <g filter="url(#scribble)" fill="none" stroke-linecap="round">
    <path d="M40 40 C60 20, 80 55, 60 70 C45 82, 30 65, 40 40" stroke="#2a6fdb" stroke-width="7"/>
    <path d="M330 50 C355 35, 370 65, 345 78 C325 88, 315 60, 330 50" stroke="#ffd23f" stroke-width="7"/>
    <path d="M50 230 C70 210, 95 240, 75 258 C58 272, 38 248, 50 230" stroke="#3fa34d" stroke-width="7"/>
    <path d="M350 220 C368 205, 385 230, 365 248 C348 260, 332 238, 350 220" stroke="#8e44ad" stroke-width="7"/>
    <path d="M200 25 C215 10, 235 20, 225 38" stroke="#ffd23f" stroke-width="6"/>
    <path d="M60 140 C40 150, 40 170, 60 172" stroke="#e91e8c" stroke-width="6"/>
    <path d="M345 140 C365 150, 365 170, 345 175" stroke="#2a6fdb" stroke-width="6"/>
    <path d="M20 100 L35 108 M25 118 L40 112" stroke="#ffd23f" stroke-width="5"/>
    <path d="M370 100 L385 108 M375 118 L390 112" stroke="#3fa34d" stroke-width="5"/>
  </g>

  <!-- 호랑이: 크고 대담하게, 원색 -->
  <g filter="url(#crayonRough2)">
    <!-- 귀 -->
    <path d="M110 95 C95 55, 145 45, 155 88 C148 70, 118 68, 110 95 Z" fill="#ff5a1f"/>
    <path d="M290 95 C305 55, 255 45, 245 88 C252 70, 282 68, 290 95 Z" fill="#ff5a1f"/>
    <path d="M120 85 C112 65, 132 62, 138 82 Z" fill="#fff3d6"/>
    <path d="M280 85 C288 65, 268 62, 262 82 Z" fill="#fff3d6"/>

    <!-- 얼굴 -->
    <path d="M200 60 C255 58, 285 100, 278 148 C272 195, 235 218, 200 216 C165 218, 128 195, 122 148 C115 100, 145 58, 200 60 Z" fill="#ff5a1f"/>
    <path d="M200 100 C232 100, 250 128, 246 156 C242 182, 222 196, 200 195 C178 196, 158 182, 154 156 C150 128, 168 100, 200 100 Z" fill="#fff3d6"/>

    <!-- 줄무늬 -->
    <path d="M150 78 C160 90, 165 98, 155 108" stroke="#1a1208" stroke-width="8" fill="none" stroke-linecap="round"/>
    <path d="M250 78 C240 90, 235 98, 245 108" stroke="#1a1208" stroke-width="8" fill="none" stroke-linecap="round"/>
    <path d="M200 64 C200 76, 200 82, 200 92" stroke="#1a1208" stroke-width="8" fill="none" stroke-linecap="round"/>

    <!-- 눈 (크고 반짝) -->
    <circle cx="172" cy="140" r="11" fill="#1a1208"/>
    <circle cx="228" cy="140" r="11" fill="#1a1208"/>
    <circle cx="176" cy="136" r="3.5" fill="#ffffff"/>
    <circle cx="232" cy="136" r="3.5" fill="#ffffff"/>

    <!-- 코, 활짝 웃는 입 -->
    <path d="M188 160 C194 155, 206 155, 212 160 C206 168, 194 168, 188 160 Z" fill="#c22b2b"/>
    <path d="M200 168 C200 176, 200 180, 200 184" stroke="#1a1208" stroke-width="4" fill="none" stroke-linecap="round"/>
    <path d="M200 184 C190 196, 172 194, 162 182" stroke="#1a1208" stroke-width="4" fill="none" stroke-linecap="round"/>
    <path d="M200 184 C210 196, 228 194, 238 182" stroke="#1a1208" stroke-width="4" fill="none" stroke-linecap="round"/>

    <!-- 수염 -->
    <path d="M148 155 C120 152, 100 152, 80 148" stroke="#1a1208" stroke-width="3.5" fill="none" stroke-linecap="round"/>
    <path d="M148 168 C120 172, 100 176, 80 180" stroke="#1a1208" stroke-width="3.5" fill="none" stroke-linecap="round"/>
    <path d="M252 155 C280 152, 300 152, 320 148" stroke="#1a1208" stroke-width="3.5" fill="none" stroke-linecap="round"/>
    <path d="M252 168 C280 172, 300 176, 320 180" stroke="#1a1208" stroke-width="3.5" fill="none" stroke-linecap="round"/>
  </g>
</svg>
