<svg viewBox="0 0 400 300" xmlns="http://www.w3.org/2000/svg" width="420" height="315">
  <defs>
    <!-- 거친 왜곡 + 크레파스 입자 질감 -->
    <filter id="crayonRough" x="-50%" y="-50%" width="200%" height="200%">
      <feTurbulence type="turbulence" baseFrequency="0.012 0.05" numOctaves="4" seed="14" result="warp"/>
      <feDisplacementMap in="SourceGraphic" in2="warp" scale="22" result="rough"/>
      <feTurbulence type="fractalNoise" baseFrequency="0.75" numOctaves="3" seed="6" result="grainNoise"/>
      <feColorMatrix in="grainNoise" type="matrix"
        values="0 0 0 0 0  0 0 0 0 0  0 0 0 0 0  0.5 0.5 0.5 0 0" result="grainAlpha"/>
      <feComposite in="grainAlpha" in2="rough" operator="in" result="grainClipped"/>
      <feComponentTransfer in="grainClipped" result="grainSoft">
        <feFuncA type="linear" slope="0.55"/>
      </feComponentTransfer>
      <feMerge>
        <feMergeNode in="rough"/>
        <feMergeNode in="grainSoft"/>
      </feMerge>
    </filter>
    <filter id="crayonLine" x="-60%" y="-60%" width="220%" height="220%">
      <feTurbulence type="turbulence" baseFrequency="0.02 0.09" numOctaves="3" seed="27" result="warp2"/>
      <feDisplacementMap in="SourceGraphic" in2="warp2" scale="10"/>
    </filter>
    <linearGradient id="dawn" x1="0" y1="0" x2="0" y2="1">
      <stop offset="0%" stop-color="#f6d9a8"/>
      <stop offset="55%" stop-color="#f3c98f"/>
      <stop offset="100%" stop-color="#e7a86a"/>
    </linearGradient>
  </defs>

  <!-- 아침 하늘 배경 -->
  <rect x="0" y="0" width="400" height="300" fill="url(#dawn)"/>

  <!-- 해 (일부러 살짝 삐뚠 손그림 원) -->
  <g filter="url(#crayonRough)">
    <path d="M90 32 C118 30, 132 48, 128 72 C124 96, 104 110, 80 106 C56 102, 48 78, 54 56 C58 40, 72 33, 90 32 Z" fill="#f6e2a4"/>
  </g>
  <g filter="url(#crayonLine)" stroke="#f6e2a4" stroke-width="5" stroke-linecap="round" fill="none">
    <path d="M90 18 L88 4"/>
    <path d="M90 138 L92 122"/>
    <path d="M36 70 L20 68"/>
    <path d="M158 72 L142 74"/>
    <path d="M50 30 L38 18"/>
    <path d="M128 32 L140 20"/>
    <path d="M50 110 L40 122"/>
    <path d="M128 108 L138 120"/>
  </g>

  <!-- 새 (거친 크레파스 획) -->
  <g filter="url(#crayonLine)" stroke="#7a4426" stroke-width="4" stroke-linecap="round" fill="none">
    <path d="M244 44 C250 38, 256 40, 260 46 C256 42, 252 45, 250 49"/>
    <path d="M286 63 C291 58, 297 60, 300 65 C296 61, 292 64, 290 68"/>
  </g>

  <g filter="url(#crayonRough)">
    <!-- 뒷쪽 언덕 (삐뚤빼뚤하게) -->
    <path d="M-5 205 C60 165, 130 225, 210 185 C270 155, 330 200, 405 172 L405 300 L-5 300 Z" fill="#9ab591"/>
    <!-- 앞쪽 들판 -->
    <path d="M-5 235 C90 200, 190 260, 290 218 C330 202, 365 222, 405 208 L405 300 L-5 300 Z" fill="#c9a24a"/>

    <!-- 들꽃 (삐뚠 점) -->
    <path d="M58 240 C64 236, 68 240, 65 248 C61 252, 55 248, 58 240 Z" fill="#e88fae"/>
    <path d="M108 258 C112 254, 116 258, 113 264 C109 267, 105 263, 108 258 Z" fill="#f6e2a4"/>
    <path d="M318 246 C324 242, 328 246, 325 254 C321 258, 315 254, 318 246 Z" fill="#e88fae"/>
    <path d="M348 262 C352 258, 356 262, 353 268 C349 271, 345 267, 348 262 Z" fill="#f6e2a4"/>
    <path d="M268 268 C272 264, 276 268, 273 274 C269 277, 265 273, 268 268 Z" fill="#f0f2e8"/>

    <!-- 나비 -->
    <path d="M198 163 C190 154, 178 155, 177 167 C180 160, 190 160, 197 167 Z" fill="#e88fae"/>
    <path d="M203 163 C211 154, 223 155, 224 167 C221 160, 211 160, 204 167 Z" fill="#e88fae"/>

    <!-- 호랑이: 완벽한 원이 아닌 손그림 덩어리 -->
    <path d="M148 226 C168 220, 190 230, 200 250 C206 268, 194 282, 174 282 C154 284, 138 276, 134 258 C131 244, 136 230, 148 226 Z" fill="#d97a42"/>
    <path d="M150 208 C144 194, 160 190, 165 202 C167 208, 158 214, 150 208 Z" fill="#d97a42"/>
    <path d="M196 210 C204 197, 218 196, 218 208 C218 216, 204 218, 196 210 Z" fill="#d97a42"/>
    <path d="M150 262 C144 250, 158 244, 172 250 C182 254, 180 268, 168 270 C158 272, 152 268, 150 262 Z" fill="#f7ecd9"/>
    <circle cx="160" cy="248" r="4" fill="#4a3324"/>
    <circle cx="184" cy="248" r="4" fill="#4a3324"/>
  </g>
  <g filter="url(#crayonLine)" stroke="#7a4426" stroke-width="4.5" fill="none" stroke-linecap="round">
    <path d="M156 236 C152 226, 150 218, 156 210"/>
    <path d="M194 236 C200 226, 202 218, 196 210"/>
    <path d="M168 196 C172 206, 176 210, 182 206"/>
    <path d="M132 268 C120 276, 108 280, 96 274"/>
  </g>
</svg>
