<svg viewBox="0 0 400 300" xmlns="http://www.w3.org/2000/svg" width="420" height="315">
  <defs>
    <filter id="crayon2" x="-30%" y="-30%" width="160%" height="160%">
      <feTurbulence type="fractalNoise" baseFrequency="0.04" numOctaves="2" seed="11" result="noise"/>
      <feDisplacementMap in="SourceGraphic" in2="noise" scale="7"/>
    </filter>
    <linearGradient id="sky" x1="0" y1="0" x2="0" y2="1">
      <stop offset="0%" stop-color="#28345c"/>
      <stop offset="100%" stop-color="#4a3a63"/>
    </linearGradient>
  </defs>

  <!-- 밤하늘 배경 -->
  <rect x="0" y="0" width="400" height="300" fill="url(#sky)"/>

  <g filter="url(#crayon2)">
    <!-- 달 -->
    <path d="M300 55 C330 55, 340 85, 328 105 C336 82, 322 60, 300 55 Z" fill="#f6e2a4"/>
    <circle cx="308" cy="80" r="26" fill="#f6e2a4"/>
    <circle cx="320" cy="72" r="26" fill="#4a3a63"/>

    <!-- 별들 (오일파스텔 뭉치처럼) -->
    <circle cx="60" cy="50" r="7" fill="#f6e2a4" opacity="0.9"/>
    <circle cx="120" cy="30" r="5" fill="#e8d9a0" opacity="0.85"/>
    <circle cx="180" cy="70" r="8" fill="#f6e2a4" opacity="0.9"/>
    <circle cx="40" cy="110" r="5" fill="#e8d9a0" opacity="0.8"/>
    <circle cx="230" cy="40" r="6" fill="#f6e2a4" opacity="0.85"/>
    <circle cx="150" cy="120" r="4" fill="#e8d9a0" opacity="0.75"/>
    <circle cx="260" cy="130" r="5" fill="#f6e2a4" opacity="0.8"/>
    <circle cx="90" cy="150" r="6" fill="#e8d9a0" opacity="0.85"/>

    <!-- 언덕 -->
    <path d="M0 230 C90 190, 180 260, 260 210 C320 180, 370 230, 400 215 L400 300 L0 300 Z" fill="#b3543c"/>

    <!-- 호랑이 (뒷모습으로 앉아 별을 바라봄) -->
    <ellipse cx="150" cy="248" rx="34" ry="30" fill="#d97a42"/>
    <path d="M126 226 C122 210, 138 208, 140 222 Z" fill="#d97a42"/>
    <path d="M174 226 C178 210, 162 208, 160 222 Z" fill="#d97a42"/>
    <path d="M150 214 C150 200, 150 190, 150 182" stroke="#7a4426" stroke-width="6" fill="none" stroke-linecap="round"/>
    <path d="M132 222 C136 214, 138 208, 134 200" stroke="#7a4426" stroke-width="5" fill="none" stroke-linecap="round"/>
    <path d="M168 222 C164 214, 162 208, 166 200" stroke="#7a4426" stroke-width="5" fill="none" stroke-linecap="round"/>
    <path d="M150 250 C160 240, 165 220, 158 205" stroke="#7a4426" stroke-width="5" fill="none" stroke-linecap="round"/>
    <path d="M116 258 C108 262, 96 270, 90 282" stroke="#d97a42" stroke-width="10" fill="none" stroke-linecap="round"/>
  </g>
</svg>
